<?xml version="1.0" encoding="UTF-8"?>
<svg version="1.1" xmlns="http://www.w3.org/2000/svg" width="537" height="120">
<path d="M0 0 C177.21 0 354.42 0 537 0 C537 39.6 537 79.2 537 120 C359.79 120 182.58 120 0 120 C0 80.4 0 40.8 0 0 Z " fill="#FEFDFE" transform="translate(0,0)"/>
<path d="M0 0 C36.63 0 73.26 0 111 0 C111 38.28 111 76.56 111 116 C74.37 116 37.74 116 0 116 C0 77.72 0 39.44 0 0 Z " fill="#8785A2" transform="translate(2,3)"/>
<path d="M0 0 C6.87954276 5.06024171 12.94316977 10.61564125 14.39257812 19.37158203 C14.57123314 21.9083829 14.60654875 24.39494832 14.5625 26.9375 C14.55226807 27.82268311 14.54203613 28.70786621 14.53149414 29.61987305 C14.3178922 36.15802862 13.42160757 40.9708433 9 46 C8.50371094 46.62777344 8.00742187 47.25554687 7.49609375 47.90234375 C2.02949746 54.13294627 -4.89534697 57.77495118 -13.171875 58.4453125 C-21.09335649 58.78630342 -28.17317511 58.37320918 -35 54 C-35.62003906 53.66097656 -36.24007813 53.32195312 -36.87890625 52.97265625 C-43.38710731 49.02275453 -46.62011057 42.44972359 -49.375 35.5625 C-51.18652253 25.2368216 -49.99988051 17.8096405 -44 9 C-32.79434517 -3.42409502 -15.11432827 -8.97714084 0 0 Z " fill="#D906FE" transform="translate(523,51)"/>
<path d="M0 0 C1.03026944 6.69675136 1.10152799 13.2314676 1 20 C-0.32 20 -1.64 20 -3 20 C-3.24234375 19.38511719 -3.4846875 18.77023438 -3.734375 18.13671875 C-6.09598762 12.04249656 -6.09598762 12.04249656 -11 8 C-13.94131891 7.01956036 -15.82501665 6.88378798 -18.88671875 6.90234375 C-20.154552 6.90609009 -20.154552 6.90609009 -21.44799805 6.90991211 C-22.51703369 6.91901611 -23.58606934 6.92812012 -24.6875 6.9375 C-28.090625 6.958125 -31.49375 6.97875 -35 7 C-35.33 18.88 -35.66 30.76 -36 43 C-31.6378125 42.814375 -31.6378125 42.814375 -27.1875 42.625 C-26.27508545 42.59100098 -25.3626709 42.55700195 -24.42260742 42.52197266 C-23.69920166 42.4863623 -22.9757959 42.45075195 -22.23046875 42.4140625 C-21.49207764 42.3826416 -20.75368652 42.3512207 -19.99291992 42.31884766 C-17.68650412 42.09165386 -17.68650412 42.09165386 -15 40 C-13.78581167 38.0533929 -13.78581167 38.0533929 -12.8125 35.875 C-12.46832031 35.15054688 -12.12414062 34.42609375 -11.76953125 33.6796875 C-11.38861328 32.84824219 -11.38861328 32.84824219 -11 32 C-10.01 32 -9.02 32 -8 32 C-8 41.57 -8 51.14 -8 61 C-8.99 61.33 -9.98 61.66 -11 62 C-11.33773437 61.28972656 -11.67546875 60.57945313 -12.0234375 59.84765625 C-12.69246094 58.46900391 -12.69246094 58.46900391 -13.375 57.0625 C-13.81585938 56.14597656 -14.25671875 55.22945312 -14.7109375 54.28515625 C-15.79199162 51.87096198 -15.79199162 51.87096198 -18 51 C-19.3734635 50.84995027 -20.7528526 50.75161994 -22.1328125 50.68359375 C-22.93847656 50.64169922 -23.74414062 50.59980469 -24.57421875 50.55664062 C-25.83685547 50.49766602 -25.83685547 50.49766602 -27.125 50.4375 C-28.39923828 50.37272461 -28.39923828 50.37272461 -29.69921875 50.30664062 C-31.79928223 50.20045764 -33.89961948 50.09971503 -36 50 C-35.90610702 54.18129125 -35.79993599 58.36204036 -35.68261719 62.54272461 C-35.64444851 63.9635373 -35.60957487 65.38444263 -35.578125 66.80541992 C-35.53220935 68.85368855 -35.47426195 70.90132608 -35.4140625 72.94921875 C-35.3826416 74.17987061 -35.3512207 75.41052246 -35.31884766 76.6784668 C-35.0110842 79.88453253 -34.46565241 82.14681124 -33 85 C-28.56695132 87.86031016 -23.16051693 87.33106525 -18.0625 87.3125 C-17.18142578 87.32861328 -16.30035156 87.34472656 -15.39257812 87.36132812 C-10.21317164 87.36520783 -6.37217983 87.07696265 -2 84 C0.04505786 81.40072218 0.04505786 81.40072218 1.625 78.4375 C4.99703166 72.47707784 4.99703166 72.47707784 9 71 C10.07287883 74.2382679 9.92440102 76.08627765 8.8203125 79.29296875 C8.55089844 80.08767578 8.28148437 80.88238281 8.00390625 81.70117188 C7.71386719 82.52166016 7.42382812 83.34214844 7.125 84.1875 C6.70154297 85.43563477 6.70154297 85.43563477 6.26953125 86.70898438 C4.16137422 92.83862578 4.16137422 92.83862578 3 94 C0.69946165 94.09443335 -1.60402173 94.11742128 -3.90649414 94.11352539 C-4.62840439 94.11367142 -5.35031464 94.11381744 -6.09410095 94.1139679 C-8.49114947 94.11326869 -10.88812123 94.10547595 -13.28515625 94.09765625 C-14.94282489 94.0957921 -16.60049407 94.09436818 -18.25816345 94.09336853 C-22.62954214 94.08954312 -27.00088781 94.07971265 -31.37225342 94.06866455 C-35.82954461 94.05845092 -40.28684111 94.05387101 -44.74414062 94.04882812 C-53.49610893 94.0380904 -62.24805036 94.02101371 -71 94 C-71 93.01 -71 92.02 -71 91 C-70.39671875 90.82984375 -69.7934375 90.6596875 -69.171875 90.484375 C-62.75214427 88.56928826 -62.75214427 88.56928826 -58 84 C-56.79633766 80.46242242 -56.84685906 77.00406926 -56.80712891 73.29125977 C-56.79895142 72.62571075 -56.79077393 71.96016174 -56.78234863 71.27444458 C-56.75760991 69.08010743 -56.74101199 66.88583427 -56.7265625 64.69140625 C-56.72123882 63.94006849 -56.71591515 63.18873074 -56.71043015 62.41462517 C-56.68375377 58.44073382 -56.66435793 54.46687334 -56.64990234 50.49291992 C-56.63654425 47.20748164 -56.60865077 43.9226617 -56.56787109 40.63745117 C-56.51856359 36.66460791 -56.49378484 32.69232678 -56.48667526 28.7191906 C-56.47996464 27.20770053 -56.4647472 25.69622292 -56.44078445 24.18490791 C-56.40913314 22.06865161 -56.40909363 19.95456597 -56.41650391 17.83813477 C-56.40841705 16.63552505 -56.4003302 15.43291534 -56.39199829 14.19386292 C-57.17431283 10.08432612 -58.82591103 8.62794339 -62 6 C-63.93442454 4.83330214 -63.93442454 4.83330214 -65.8125 4.1875 C-66.864375 3.795625 -67.91625 3.40375 -69 3 C-69 2.34 -69 1.68 -69 1 C-61.33242312 0.86871654 -53.66483246 0.73826547 -45.99722385 0.60884857 C-42.43604915 0.54871612 -38.87487961 0.48830743 -35.3137207 0.42724609 C-31.21046325 0.35690221 -27.10718571 0.28779824 -23.00390625 0.21875 C-21.73793106 0.19687622 -20.47195587 0.17500244 -19.1676178 0.15246582 C-12.77728506 0.04589997 -6.39121642 -0.02410643 0 0 Z " fill="#8904FF" transform="translate(211,14)"/>
<path d="M0 0 C0 2.97 0 5.94 0 9 C0.68707031 8.57847656 1.37414062 8.15695313 2.08203125 7.72265625 C2.98308594 7.17480469 3.88414062 6.62695312 4.8125 6.0625 C6.15248047 5.24458984 6.15248047 5.24458984 7.51953125 4.41015625 C13.30345842 1.12197088 19.52033936 1.07433419 26 2 C31.9011762 5.07371929 34.99957606 9.74543382 37 16 C37.46872062 19.04538908 37.57667925 22.06704578 37.66015625 25.14453125 C37.7132621 26.42102791 37.7132621 26.42102791 37.7674408 27.72331238 C37.87854106 30.41939386 37.97211493 33.11565041 38.0625 35.8125 C38.15787912 38.52708114 38.25725082 41.24125754 38.36827087 43.95524597 C38.43680132 45.6387349 38.49615226 47.3226276 38.54542542 49.00679016 C38.55098887 53.47461505 38.55098887 53.47461505 41 57 C42.64991582 57.70710678 44.31562256 58.37943989 46 59 C45.67 59.99 45.34 60.98 45 62 C34.44 62 23.88 62 13 62 C13.33 60.68 13.66 59.36 14 58 C15.98 57.505 15.98 57.505 18 57 C19.37979247 51.11929132 19.22298439 45.25721105 19.24023438 39.24487305 C19.24992241 37.20384683 19.28097821 35.16383662 19.3125 33.12304688 C19.47629511 21.76049945 19.47629511 21.76049945 14.25 12 C10.99603515 10.5537934 8.51777324 10.62309572 5 11 C2.67345783 11.90071393 2.67345783 11.90071393 1 14 C0.61910687 16.8676085 0.4861523 19.345963 0.5390625 22.2109375 C0.53997894 23.01608795 0.54089539 23.8212384 0.5418396 24.65078735 C0.54787989 26.35384005 0.5636389 28.05688192 0.58837891 29.75976562 C0.62476859 32.35847421 0.62939903 34.95575132 0.62890625 37.5546875 C0.63874242 39.21094975 0.65040159 40.86720238 0.6640625 42.5234375 C0.66628815 43.29754974 0.66851379 44.07166199 0.67080688 44.86923218 C0.74266463 48.9842935 1.00217593 52.35851546 3 56 C5.51364756 57.82619087 5.51364756 57.82619087 8 59 C7.67 59.99 7.34 60.98 7 62 C-3.56 62 -14.12 62 -25 62 C-25 60.68 -25 59.36 -25 58 C-24.195625 57.731875 -23.39125 57.46375 -22.5625 57.1875 C-21.2940625 56.5996875 -21.2940625 56.5996875 -20 56 C-18.72672823 52.18018468 -18.79849498 48.55332591 -18.76171875 44.5703125 C-18.753647 43.742966 -18.74557526 42.91561951 -18.73725891 42.0632019 C-18.72343573 40.31315191 -18.71270568 38.56307516 -18.70483398 36.81298828 C-18.6876079 34.14173219 -18.64370606 31.47170997 -18.59960938 28.80078125 C-18.58948299 27.09896742 -18.58096672 25.39714308 -18.57421875 23.6953125 C-18.55671066 22.89932648 -18.53920258 22.10334045 -18.52116394 21.28323364 C-18.54114219 16.15662878 -19.39026887 13.87396759 -23 10 C-22.75 7.6875 -22.75 7.6875 -22 6 C-20.96359375 5.73445313 -19.9271875 5.46890625 -18.859375 5.1953125 C-17.48952244 4.83877553 -16.11973412 4.4819917 -14.75 4.125 C-13.72712891 3.86396484 -13.72712891 3.86396484 -12.68359375 3.59765625 C-8.35767841 2.46367844 -4.40723146 0 0 0 Z " fill="#BB04FE" transform="translate(373,46)"/>
<path d="M0 0 C4.5151265 3.72988711 7.63736041 7.80877158 8.3125 13.75 C8 16 8 16 6 18 C3.49079154 18.17495606 1.09375059 18.23169569 -1.4140625 18.1953125 C-2.14370209 18.1924826 -2.87334167 18.18965271 -3.62509155 18.18673706 C-5.95856028 18.17553002 -8.29164703 18.1504251 -10.625 18.125 C-12.20572363 18.11497085 -13.78645327 18.10584489 -15.3671875 18.09765625 C-19.24493914 18.07558905 -23.12240478 18.04105615 -27 18 C-26.4187858 27.21915453 -25.31538088 34.78987231 -18.4375 41.5 C-12.77116282 44.98697673 -8.65388328 45.68691861 -2 45 C0.5761464 44.24517449 2.59084323 43.25276152 5 42 C6.2065625 41.4121875 6.2065625 41.4121875 7.4375 40.8125 C7.953125 40.544375 8.46875 40.27625 9 40 C8.19366759 45.86887515 5.28165204 49.0792535 1 53 C-6.98493902 58.19466293 -16.04869035 59.44487124 -25.38671875 57.50390625 C-32.53479948 55.09398189 -37.3333512 49.39412089 -41 43 C-44.38923644 34.8824232 -44.4688137 24.29166365 -42.125 15.84765625 C-37.93251616 6.8972549 -30.92365385 0.99172686 -22 -3 C-14.07664263 -5.42016947 -7.05318588 -4.21270051 0 0 Z " fill="#AB06FE" transform="translate(332,51)"/>
<path d="M0 0 C1.32 0.33 2.64 0.66 4 1 C4 4.63 4 8.26 4 12 C5.14339844 11.98839844 6.28679687 11.97679687 7.46484375 11.96484375 C8.95572754 11.95546712 10.44661309 11.94636679 11.9375 11.9375 C13.06961914 11.92493164 13.06961914 11.92493164 14.22460938 11.91210938 C16.14994313 11.90347559 18.07535581 11.94775667 20 12 C21 13 21 13 21 21 C15.39 21 9.78 21 4 21 C4.11997848 25.91145948 4.2426667 30.82269492 4.37231445 35.73388672 C4.41558489 37.40409334 4.45726549 39.07434194 4.49731445 40.74462891 C4.55520851 43.14758955 4.6188474 45.55034041 4.68359375 47.953125 C4.70030624 48.69806213 4.71701874 49.44299927 4.73423767 50.21051025 C4.75300298 55.22101931 4.75300298 55.22101931 6 60 C11.34425837 61.78141946 16.54780241 61.06384343 22 60 C21.67335557 62.9397999 21.20333458 64.72346497 19.4375 67.125 C13.23160304 71.89876689 6.66995269 72.73476858 -1 72 C-5.59482379 70.95966254 -8.57463417 69.23506772 -12 66 C-13.69071269 63.18007374 -14.25826652 61.05360788 -14.31884766 57.78222656 C-14.33871735 56.96167786 -14.35858704 56.14112915 -14.37905884 55.29571533 C-14.39061005 54.41953552 -14.40216125 53.54335571 -14.4140625 52.640625 C-14.43342865 51.73624695 -14.4527948 50.8318689 -14.4727478 49.90008545 C-14.53243831 47.01681901 -14.57888686 44.13351242 -14.625 41.25 C-14.66318947 39.29295152 -14.70224177 37.33591967 -14.7421875 35.37890625 C-14.83813125 30.58607289 -14.92220127 25.79316085 -15 21 C-17.475 20.01 -17.475 20.01 -20 19 C-19.72612639 15.8144175 -18.98984608 14.99119139 -16.5234375 12.8515625 C-14.96496094 11.74941406 -14.96496094 11.74941406 -13.375 10.625 C-9.74701838 8.03404512 -6.26224996 5.42356547 -3 2.375 C-2.01 1.59125 -1.02 0.8075 0 0 Z " fill="#CA03FE" transform="translate(445,37)"/>
<path d="M0 0 C11.55 0 23.1 0 35 0 C35 0.99 35 1.98 35 3 C33.02 3.99 31.04 4.98 29 6 C29.6013634 12.19298795 32.08088748 17.62196303 34.4375 23.3125 C35.04948242 24.83327148 35.04948242 24.83327148 35.67382812 26.38476562 C36.26647461 27.82819336 36.26647461 27.82819336 36.87109375 29.30078125 C37.41141235 30.61816284 37.41141235 30.61816284 37.96264648 31.9621582 C38.82818762 34.16168403 38.82818762 34.16168403 41 35 C41.13728516 34.05447266 41.13728516 34.05447266 41.27734375 33.08984375 C42.4929232 27.89242025 44.60140421 22.99439209 46.56054688 18.03710938 C48.28305286 13.52578418 49.43975397 9.91724892 49 5 C47.02 4.34 45.04 3.68 43 3 C43 2.01 43 1.02 43 0 C50.92 0 58.84 0 67 0 C67 0.99 67 1.98 67 3 C66.40614502 3.18578613 65.81229004 3.37157227 65.20043945 3.56298828 C60.69833905 5.21835412 57.70807836 6.63327265 55.35546875 10.9296875 C54.60079644 12.56371564 53.88000843 14.21367212 53.1875 15.875 C52.78716553 16.76815918 52.38683105 17.66131836 51.97436523 18.58154297 C47.69329441 28.29750634 43.823517 38.21932395 40.0222168 48.13232422 C39.77670074 48.76458923 39.53118469 49.39685425 39.27822876 50.04827881 C38.60773697 51.77629353 37.94532377 53.50743663 37.28344727 55.23876953 C36.10077626 57.78318822 35.1294332 59.22333785 33 61 C30 60 30 60 28.80834961 57.77294922 C28.42686768 56.79342285 28.04538574 55.81389648 27.65234375 54.8046875 C26.99903076 53.15750732 26.99903076 53.15750732 26.33251953 51.47705078 C25.87216309 50.28837402 25.41180664 49.09969727 24.9375 47.875 C24.20500303 46.03529153 23.4724763 44.19559321 22.73712158 42.35702515 C22.23530777 41.10212252 21.73462716 39.84676618 21.23504639 38.5909729 C18.77247642 32.40357353 16.23334911 26.25224917 13.625 20.125 C13.23304443 19.17608887 12.84108887 18.22717773 12.43725586 17.24951172 C9.39256014 10.14500591 5.91059279 5.75146466 -1 2 C-0.67 1.34 -0.34 0.68 0 0 Z " fill="#9C05FF" transform="translate(221,49)"/>
<path d="M0 0 C7.90188241 7.54270593 9.03987702 17.11410982 9.29174805 27.54663086 C9.37014632 36.10679959 9.27839973 44.77474131 3.5703125 51.74609375 C2 53 2 53 -1.3125 53.625 C-5.81181611 52.86240405 -7.03079795 51.6028443 -9.71484375 48.07421875 C-14.66072163 40.09166205 -15.22626181 31.93650101 -15.3125 22.8125 C-15.34150391 21.80896484 -15.37050781 20.80542969 -15.40039062 19.77148438 C-15.46473024 12.16456246 -14.23037073 5.7873312 -9.1875 -0.125 C-5.70808153 -1.51676739 -3.55898003 -1.06145019 0 0 Z " fill="#FEFCFE" transform="translate(509,52)"/>
<path d="M0 0 C2.73962185 1.17494243 3.9511243 3.17348599 5.19140625 5.8125 C6.21477377 8.82344836 6.60851709 11.63206872 6.8671875 14.80078125 C9.8371875 15.79078125 12.8071875 16.78078125 15.8671875 17.80078125 C16.4921875 20.17578125 16.4921875 20.17578125 16.8671875 22.80078125 C16.2071875 23.46078125 15.5471875 24.12078125 14.8671875 24.80078125 C10.51812323 24.47254998 6.8329243 23.60338889 2.8671875 21.80078125 C-1.63980166 28.99583551 -1.69085185 35.25847822 -1.6953125 43.61328125 C-1.70422623 46.03654304 -1.72575322 48.45980123 -1.76171875 50.8828125 C-1.7628064 52.47959839 -1.7628064 52.47959839 -1.76391602 54.10864258 C-2.1328125 56.80078125 -2.1328125 56.80078125 -3.42553711 58.69018555 C-6.28449753 60.54996117 -8.94758432 59.46186634 -12.1328125 58.80078125 C-13.20867628 55.57318992 -13.32078511 53.0673208 -13.4140625 49.671875 C-13.45144531 48.47240234 -13.48882813 47.27292969 -13.52734375 46.03710938 C-13.59776462 43.50065405 -13.66807678 40.9641957 -13.73828125 38.42773438 C-13.77566406 37.22955078 -13.81304688 36.03136719 -13.8515625 34.796875 C-13.88185547 33.69529053 -13.91214844 32.59370605 -13.94335938 31.45874023 C-13.96069371 28.82627673 -13.96069371 28.82627673 -15.1328125 26.80078125 C-15.42128554 21.45396698 -14.70719409 16.76233832 -13.4453125 11.61328125 C-13.29642578 10.91525391 -13.14753906 10.21722656 -12.99414062 9.49804688 C-12.14340753 5.99169203 -11.26363444 3.93630594 -8.7421875 1.32421875 C-5.38137773 -0.63793066 -3.72354098 -0.69552935 0 0 Z " fill="#FCFCFD" transform="translate(43.1328125,40.19921875)"/>
<path d="M0 0 C4.60173328 3.65796463 5.8204217 6.65459527 6.8125 12.375 C7.04582031 13.64085937 7.27914062 14.90671875 7.51953125 16.2109375 C8.70805921 25.58388158 8.70805921 25.58388158 7 29 C6.86915758 31.15383923 6.79722293 33.31137501 6.75390625 35.46875 C6.72103516 36.76167969 6.68816406 38.05460937 6.65429688 39.38671875 C6.60680372 41.44738018 6.56234781 43.50801023 6.52319336 45.56884766 C6.48355421 47.55650175 6.43141366 49.54389421 6.37890625 51.53125 C6.3538501 52.72298828 6.32879395 53.91472656 6.30297852 55.14257812 C6 58 6 58 4 60 C1.24430582 60.35329413 -0.32999454 60.4740869 -2.63476562 58.84326172 C-4.54871047 56.25916236 -4.38450947 54.38968761 -4.40625 51.1953125 C-4.42816406 50.05449219 -4.45007813 48.91367188 -4.47265625 47.73828125 C-4.48167969 46.54589844 -4.49070312 45.35351562 -4.5 44.125 C-4.51791285 41.77329809 -4.54868489 39.42165082 -4.59375 37.0703125 C-4.60083984 36.02633301 -4.60792969 34.98235352 -4.61523438 33.90673828 C-5.05463672 30.58724318 -6.1949442 28.78384558 -8 26 C-8.33 24.68 -8.66 23.36 -9 22 C-11.64 22.66 -14.28 23.32 -17 24 C-17.66 21.69 -18.32 19.38 -19 17 C-18.236875 16.71125 -17.47375 16.4225 -16.6875 16.125 C-13.10588014 13.29302151 -12.86545386 10.68210439 -11.73046875 6.38671875 C-9.82323349 0.15505703 -6.16024658 -0.97267051 0 0 Z " fill="#FCFCFD" transform="translate(79,40)"/>
<path d="M0 0 C3.875 0.75 3.875 0.75 6.375 2.875 C8.11957036 6.21875985 8.52100202 8.03548837 7.875 11.75 C5.36051174 14.46132951 3.9364606 14.74509623 0.203125 15.04296875 C-1.15656035 15.02316751 -2.5160934 14.98759202 -3.875 14.9375 C-4.57238281 14.92396484 -5.26976562 14.91042969 -5.98828125 14.89648438 C-7.70085541 14.8612945 -9.41302941 14.80749155 -11.125 14.75 C-10.54588446 9.2051351 -9.72008348 6.11565538 -5.94140625 2.08203125 C-3.84970664 0.5481182 -2.57519394 0.16847063 0 0 Z " fill="#FCF7FE" transform="translate(317.125,50.25)"/>
<path d="M0 0 C2.9375 1.5625 2.9375 1.5625 5 4 C5.5197844 7.63849082 5.42741214 9.98489618 4 13.375 C1.03701711 15.78242359 -2.21847911 16.22872102 -6 16 C-6.99 15.34 -7.98 14.68 -9 14 C-9 13.34 -9 12.68 -9 12 C-9.66 12 -10.32 12 -11 12 C-11.48192771 4.77108434 -11.48192771 4.77108434 -9.4375 1.5 C-6.03618625 -0.59311615 -3.92927257 -0.55147685 0 0 Z " fill="#F9F9FA" transform="translate(74,23)"/>
<path d="M0 0 C2.9375 1.5 2.9375 1.5 5 4 C5.41708655 6.80196606 5.23811939 9.14256735 5 12 C3.02 12.99 3.02 12.99 1 14 C1 14.66 1 15.32 1 16 C-5.37850467 16.49065421 -5.37850467 16.49065421 -8.375 14.125 C-11.05586972 10.61924729 -11.44201711 8.42017108 -11 4 C-8.05127687 -0.48205916 -5.14006617 -0.7214128 0 0 Z " fill="#F9F9FB" transform="translate(46,23)"/>
</svg>
